General
Complete name : Rush - Beyond The Lighted Stage (2010) 
Format : AVI
Format/Info : Audio Video Interleave
File size : 751 MiB
Duration : 1h 46mn
Overall bit rate : 981 Kbps
Writing application : VirtualDubMod 1.5.4.1 (build 2178/release)
Writing library : VirtualDubMod build 2178/release

Video
ID : 0
Format : MPEG-4 Visual
Format profile : AdvancedSimple@L5
Format settings, BVOP : Yes
Format settings, QPel : No
Format settings, GMC : No warppoints
Format settings, Matrix : Custom
Codec ID : XVID
Codec ID/Hint : XviD
Duration : 1h 46mn
Bit rate : 527 Kbps
Width : 560 pixels
Height : 320 pixels
Display aspect ratio : 16:9
Frame rate : 23.976 fps
Resolution : 24 bits
Colorimetry : 4:2:0
Scan type : Progressive
Bits/(Pixel*Frame) : 0.123
Stream size : 403 MiB (54%)
Writing library : XviD 1.2.1 (UTC 2008-12-04)

Audio
ID : 1
Format : AC-3
Format/Info : Audio Coding 3
Codec ID : 2000
Duration : 1h 46mn
Bit rate mode : Constant
Bit rate : 448 Kbps
Channel(s) : 6 channels
Channel positions : Front: L C R, Surround: L R, LFE
Sampling rate : 48.0 KHz
Stream size : 343 MiB (46%)
Alignment : Split accross interleaves
Interleave, duration : 96 ms (2.30 video frames)
Interleave, preload duration : 96 ms
Language : English